<?xml version="1.0" encoding="UTF-8" standalone="no"?> <svg id="Layer_1" data-name="Layer 1" xmlns="http://www.w3.org/2000/svg" viewBox="0 0 512 512"><defs><style>.cls-1{fill:#ffd18d;}.cls-2{fill:#965930;}.cls-2,.cls-5{opacity:0.25;}.cls-3{fill:#3498db;}.cls-4{fill:#2ecc71;}.cls-5{fill:#083c59;}</style></defs><title>Save Earth</title><path class="cls-1" d="M192,413.406V480a10.667,10.667,0,0,1-10.667,10.667h-49.4A10.667,10.667,0,0,1,121.26,480V467.325L54.176,400.908A38.693,38.693,0,0,1,42.667,373.4V265.008a15.639,15.639,0,0,1,15.714-15.565,31.452,31.452,0,0,1,22.227,9.121,30.841,30.841,0,0,1,9.212,22.009v54.459l14.393,14.255a30.648,30.648,0,0,1,7.834-12.923,13.1,13.1,0,0,1,18.413,0L180.486,385.9A38.721,38.721,0,0,1,192,413.406Z"/><path class="cls-1" d="M469.333,265.011V373.4a38.692,38.692,0,0,1-11.51,27.511l-67.082,66.416V480a10.667,10.667,0,0,1-10.667,10.667h-49.4A10.667,10.667,0,0,1,320.006,480V413.407a38.673,38.673,0,0,1,11.51-27.511l50.013-49.531a13.118,13.118,0,0,1,18.425,0,30.881,30.881,0,0,1,7.834,12.923l14.393-14.255V280.575a30.878,30.878,0,0,1,9.2-22.008,31.5,31.5,0,0,1,22.238-9.12A15.646,15.646,0,0,1,469.333,265.011Z"/><path class="cls-2" d="M437.328,253.944a31.569,31.569,0,0,0-5.947,4.622,30.878,30.878,0,0,0-9.2,22.008v54.458L407.8,349.28a30.647,30.647,0,0,0-7.832-12.916,12.984,12.984,0,0,0-5.284-3.171c16.037,21.371,0,50.807,0,50.807A24.2,24.2,0,0,0,406.7,371.682l24.313-24.094a21.333,21.333,0,0,0,6.317-15.153Z"/><path class="cls-2" d="M74.683,253.944a31.569,31.569,0,0,1,5.947,4.622,30.878,30.878,0,0,1,9.2,22.008v54.458l14.385,14.247a30.647,30.647,0,0,1,7.832-12.916,12.984,12.984,0,0,1,5.284-3.171c-16.037,21.371,0,50.807,0,50.807a24.2,24.2,0,0,1-12.019-12.318L81,347.588a21.333,21.333,0,0,1-6.317-15.153Z"/><path class="cls-2" d="M121.26,467.325V480a10.667,10.667,0,0,0,10.667,10.667h49.4A10.667,10.667,0,0,0,192,480V459.312A433.5,433.5,0,0,1,74.748,421.275Z"/><path class="cls-2" d="M437.255,421.274a433.505,433.505,0,0,1-117.249,38.038V480a10.667,10.667,0,0,0,10.667,10.667h49.4A10.667,10.667,0,0,0,390.741,480V467.326Z"/><circle class="cls-3" cx="256" cy="176" r="154.667"/><path class="cls-4" d="M248.536,86.382v.265a13.48,13.48,0,0,1-7.461,12.064L205.1,116.7a13.489,13.489,0,0,0-1.451.84l-18.413,12.278a13.562,13.562,0,0,0-4.588,5.192l-2.74,5.494a13.447,13.447,0,0,0,0,12.064,13.5,13.5,0,0,1-2.534,15.577l-.405.405a13.482,13.482,0,0,1-16.476,2.025l-23.517-14.1a13.481,13.481,0,0,1-5.855-7.306L123.33,131.81c-6.923,0-11.077-3.086-13.537-6.363v-.007a155.1,155.1,0,0,1,70.219-84.183l21.506,14.936a13.491,13.491,0,0,1,4.368,5.045l2.1,4.191a13.48,13.48,0,0,0,12.064,7.461h15A13.491,13.491,0,0,1,248.536,86.382Z"/><path class="cls-4" d="M270.631,218.452v7.623a9.1,9.1,0,0,1-.464,2.88l-6.224,18.656a9.055,9.055,0,0,1-2.195,3.557l-11.261,11.261A9.062,9.062,0,0,0,248,267.084l-5.951,29.755a9.108,9.108,0,0,1-4.861,6.356l-4.876,2.445a9.108,9.108,0,0,1-10.51-1.709l-9.044-9.044a9.311,9.311,0,0,1-1.709-2.364l-5.745-11.49a9.192,9.192,0,0,1-.957-4.073V247.913a9.123,9.123,0,0,0-5.03-8.146L191.781,236a9.051,9.051,0,0,1-3.506-3.093l-11.858-17.794a9.053,9.053,0,0,1-1.532-5.045v-6.349a9.123,9.123,0,0,1,5.03-8.146l6.982-3.491a9.012,9.012,0,0,0,4.073-4.073l3.491-6.982a9.123,9.123,0,0,1,8.146-5.03h12.7a9.1,9.1,0,0,1,6.437,2.666l2.033,2.033a9.1,9.1,0,0,0,6.437,2.666h1.856a9.1,9.1,0,0,1,9.1,9.1,9.123,9.123,0,0,0,5.03,8.146l19.4,9.692A9.123,9.123,0,0,1,270.631,218.452Z"/><path class="cls-4" d="M410.664,176a154.186,154.186,0,0,1-44.117,108.164l-6.776-16.778a14.753,14.753,0,0,1-.759-4.662V246.5a14.7,14.7,0,0,0-1.554-6.584L345.836,216.67a14.7,14.7,0,0,1-1.554-6.584v-2.151a14.729,14.729,0,0,0-21.314-13.176l-5.038,2.519a14.7,14.7,0,0,1-6.584,1.554h-.633a14.734,14.734,0,0,1-13.979-10.075L293.485,179a14.753,14.753,0,0,1-.759-4.662V162.522a14.728,14.728,0,0,1,6.562-12.256l13.412-8.941a14.784,14.784,0,0,1,4.6-2.033l22.824-5.708a14.779,14.779,0,0,1,8.234.317l15.754,5.251a14.754,14.754,0,0,0,4.662.759h37.658A154.99,154.99,0,0,1,410.664,176Z"/><path class="cls-4" d="M395.771,109.714h-22a12.5,12.5,0,0,1-8.838-3.66l-1.517-1.517a12.5,12.5,0,0,0-8.838-3.66h-9.545a12.509,12.509,0,0,0-5.6,1.318l-12.388,6.2a12.531,12.531,0,0,1-5.6,1.318h-2.224a12.5,12.5,0,0,1-8.838-21.337l12.587-12.587a12.6,12.6,0,0,1,3.241-2.342l13.22-6.606a12.509,12.509,0,0,1,5.6-1.318h19.2A154.918,154.918,0,0,1,395.771,109.714Z"/><path class="cls-5" d="M285.46,293.841A147.294,147.294,0,0,1,185.642,38.227,154.689,154.689,0,1,0,393.773,246.358,146.9,146.9,0,0,1,285.46,293.841Z"/></svg>